Coordinates
version=1
nRows=16
nColumns=42
inDegrees=yes

Units are S.I. units (second, meters, Newtons, ...)
If the header above contains a line with 'inDegrees', this indicates whether rotational values are in degrees (yes) or radians (no).

endheader
time	pelvis_tilt	pelvis_list	pelvis_rotation	pelvis_tx	pelvis_ty	pelvis_tz	hip_flexion_r	hip_adduction_r	hip_rotation_r	knee_angle_r	knee_adduction_r	knee_angle_r_beta	ankle_angle_r	subtalar_angle_r	mtp_angle_r	hip_flexion_l	hip_adduction_l	hip_rotation_l	knee_angle_l	knee_adduction_l	knee_angle_l_beta	ankle_angle_l	subtalar_angle_l	mtp_angle_l	lumbar_extension	lumbar_bending	lumbar_rotation	arm_flex_r	arm_add_r	arm_rot_r	elbow_flex_r	pro_sup_r	wrist_flex_r	wrist_dev_r	arm_flex_l	arm_add_l	arm_rot_l	elbow_flex_l	pro_sup_l	wrist_flex_l	wrist_dev_l
      4.50000000	      1.79377067	    -10.45173906	     -7.57225657	     -0.80546893	      0.82294587	      0.32010077	      2.45754366	      9.75536988	    -26.70204676	     22.30985581	     -3.42306367	      0.38938044	     22.61828687	     34.41701659	     -7.50104190	     29.11201795	    -22.01537756	    -27.06559757	     43.92031821	    -10.52538707	      0.76655416	     14.57059130	     22.95549454	     -7.50104190	    -28.17524797	      9.09320669	      2.27642564	     -8.80385570	     -2.76252087	    -11.90403461	    105.92783726	     90.00000001	      0.00000000	      0.00000000	      3.41785294	     -9.33083296	    -17.09921135	     47.82667557	     90.00000001	      0.00000000	      0.00000000
      4.51000000	      1.96747774	    -10.43675972	     -7.80480161	     -0.80258950	      0.82325793	      0.31915632	      1.96104273	      9.71849558	    -26.18912046	     22.05826224	     -3.50430599	      0.38498930	     23.07537907	     34.56831337	     -7.50102924	     28.46059654	    -21.80013736	    -26.95362402	     42.94517268	    -10.08599448	      0.74953466	     14.29845362	     23.68033362	     -7.50102924	    -28.29945967	      8.89308642	      2.34593368	     -8.74256306	     -2.64637608	    -12.14351453	    105.71822409	     90.00000001	      0.00000000	      0.00000000	      3.56722544	     -9.30545339	    -17.35939972	     47.39221009	     90.00000001	      0.00000000	      0.00000000
      4.52000000	      1.89984096	    -10.57983444	     -7.93382527	     -0.79956831	      0.82292178	      0.31802609	      1.79211178	      9.75786159	    -26.10857197	     22.08490958	     -3.50041944	      0.38545439	     23.11334637	     34.51241342	     -7.50102562	     28.38652794	    -21.82644171	    -26.98673234	     42.61748351	     -9.97685259	      0.74381541	     14.28504546	     23.70929712	     -7.50102562	    -28.13703008	      8.95827384	      2.29002816	     -8.79075039	     -2.67908371	    -12.23812789	    105.71268290	     90.00000001	      0.00000000	      0.00000000	      3.39448992	     -9.33574122	    -17.41340906	     47.29700205	     90.00000001	      0.00000000	      0.00000000
      4.53000000	      1.82138886	    -10.70146417	     -8.14562641	     -0.79646447	      0.82274578	      0.31687583	      1.62995322	      9.80117057	    -25.92989928	     22.06526632	     -3.57731283	      0.38511155	     23.20210341	     34.47589341	     -7.50102179	     28.16040111	    -21.78084109	    -26.91672119	     42.19712601	     -9.87112663	      0.73647878	     14.25084332	     23.76787409	     -7.50102179	    -27.96780806	      9.01405921	      2.23453809	     -8.86482865	     -2.69113095	    -12.36635065	    105.66122509	     90.00000001	      0.00000000	      0.00000000	      3.21325391	     -9.36627813	    -17.48157968	     47.16164506	     90.00000001	      0.00000000	      0.00000000
      4.54000000	      1.94917332	    -10.66539643	     -8.39550315	     -0.79351128	      0.82312579	      0.31574117	      1.18666022	      9.75147186	    -25.35026237	     21.81549698	     -3.68483865	      0.38075225	     23.52555816	     34.44316800	     -7.50101158	     27.50509421	    -21.50706111	    -26.85988417	     41.55254910	     -9.65788541	      0.72522879	     14.09579295	     23.99969839	     -7.50101158	    -28.02243555	      8.80220247	      2.31319076	     -8.78619082	     -2.55456901	    -12.57669194	    105.45957316	     90.00000001	      0.00000000	      0.00000000	      3.34378176	     -9.37692371	    -17.66381613	     46.87489198	     90.00000001	      0.00000000	      0.00000000
      4.55000000	      2.15453073	    -10.65121792	     -8.63940659	     -0.79026166	      0.82358479	      0.31450775	      0.62027483	      9.62187293	    -24.79009228	     21.63359909	     -3.62132371	      0.37757753	     23.68420237	     34.19437877	     -7.50099369	     26.81465119	    -21.29312557	    -27.01503085	     41.17860856	     -9.60931652	      0.71870230	     13.96942123	     24.07767840	     -7.50099369	    -28.12214499	      8.61379379	      2.34504525	     -8.79854669	     -2.48049534	    -12.75333175	    105.34408043	     90.00000001	      0.00000000	      0.00000000	      3.37953648	     -9.36447235	    -17.88154469	     46.59160320	     90.00000001	      0.00000000	      0.00000000
      4.56000000	      2.06483488	    -10.75206756	     -8.83584044	     -0.78712627	      0.82354770	      0.31315616	      0.49301985	      9.62105883	    -24.70258413	     21.67325183	     -3.68739364	      0.37826960	     23.66805769	     34.12483417	     -7.50099132	     26.64871172	    -21.20088184	    -26.88645876	     41.15253625	     -9.65403914	      0.71824725	     13.95043248	     24.06379863	     -7.50099132	    -27.91244393	      8.65298935	      2.31784985	     -8.84943687	     -2.46928781	    -12.78196661	    105.33344285	     90.00000001	      0.00000000	      0.00000000	      3.23328290	     -9.38083057	    -17.90213785	     46.53961983	     90.00000001	      0.00000000	      0.00000000
      4.57000000	      2.10738833	    -10.68607662	     -9.12673455	     -0.78405514	      0.82402202	      0.31190929	      0.19307576	      9.55464740	    -24.15986069	     21.53321616	     -3.88393223	      0.37582552	     23.74707963	     33.92320940	     -7.50098154	     26.04603578	    -20.87140076	    -26.59610009	     40.73131971	     -9.41794447	      0.71089564	     13.98365872	     23.95781697	     -7.50098154	    -27.85170024	      8.43323879	      2.31697960	     -8.80936139	     -2.33971623	    -12.84983478	    105.18658573	     90.00000001	      0.00000000	      0.00000000	      3.20829378	     -9.43605940	    -17.99336794	     46.35097301	     90.00000001	      0.00000000	      0.00000000
      4.58000000	      2.03615000	    -10.76466463	     -9.32284605	     -0.78082751	      0.82421518	      0.31043821	      0.03609056	      9.52493031	    -24.05532011	     21.57738509	     -3.93652533	      0.37659641	     23.72253703	     33.83901508	     -7.50097935	     25.82994644	    -20.74859955	    -26.43593783	     40.76907299	     -9.47107109	      0.71155456	     13.95917930	     23.91711005	     -7.50097935	    -27.64083750	      8.45952317	      2.30999357	     -8.87884408	     -2.31961185	    -12.86472804	    105.15411398	     90.00000001	      0.00000000	      0.00000000	      3.08817919	     -9.43974012	    -18.00855322	     46.30113442	     90.00000001	      0.00000000	      0.00000000
      4.59000000	      2.40260586	    -10.59358500	     -9.65554666	     -0.77764045	      0.82552979	      0.30900271	     -0.72634970	      9.24571830	    -22.99130056	     21.29780384	     -3.80839288	      0.37171680	     23.52400553	     32.69806347	     -7.50093775	     24.72597547	    -20.25265181	    -26.04409678	     40.33583744	     -9.00882468	      0.70399317	     13.86403619	     22.62488783	     -7.50093775	    -27.92364736	      8.05639633	      2.36465266	     -8.82990761	     -2.18994917	    -12.90608278	    104.99699451	     90.00000001	      0.00000000	      0.00000000	      3.20482445	     -9.47412030	    -18.20064879	     46.01532705	     90.00000001	      0.00000000	      0.00000000
      4.60000000	      2.31372063	    -10.64777417	     -9.88325194	     -0.77445707	      0.82596060	      0.30745981	     -0.83638270	      9.20868496	    -22.88105666	     21.35251522	     -3.92220260	      0.37267169	     23.47260652	     32.61468793	     -7.50093502	     24.49304947	    -20.10579740	    -25.81962974	     40.36550734	     -9.00927104	      0.70451101	     13.86331469	     22.59640990	     -7.50093502	    -27.71146401	      8.06806503	      2.35908297	     -8.90141858	     -2.13021290	    -12.88120327	    104.96181187	     90.00000001	      0.00000000	      0.00000000	      3.08558799	     -9.48395712	    -18.20908246	     45.96994454	     90.00000001	      0.00000000	      0.00000000
      4.61000000	      2.42302775	    -10.48004055	    -10.19462156	     -0.77140731	      0.82697641	      0.30604954	     -1.12408334	      8.98073992	    -22.42618749	     21.38275509	     -4.10276693	      0.37319948	     23.20521174	     32.19877936	     -7.50092402	     23.74067637	    -19.71081030	    -25.29048933	     40.02002153	     -8.43484562	      0.69848114	     14.08079671	     22.16423414	     -7.50092402	    -27.68071544	      7.72412153	      2.37735828	     -8.86138688	     -2.03841945	    -12.74667735	    104.82405781	     90.00000001	      0.00000000	      0.00000000	      3.12707956	     -9.57529553	    -18.23582185	     45.82980060	     90.00000001	      0.00000000	      0.00000000
      4.62000000	      2.33674484	    -10.54236002	    -10.36567620	     -0.76820604	      0.82763111	      0.30434943	     -1.24544624	      8.94489975	    -22.35669392	     21.44134920	     -4.15573458	      0.37422214	     23.14032832	     32.09812754	     -7.50092197	     23.50922328	    -19.58552912	    -25.15174989	     40.05338530	     -8.44886932	      0.69906345	     14.06973611	     22.09401169	     -7.50092197	    -27.44478060	      7.78143803	      2.37553332	     -8.90578945	     -1.98193592	    -12.71472992	    104.81067155	     90.00000001	      0.00000000	      0.00000000	      3.05771418	     -9.57309070	    -18.23629112	     45.81229932	     90.00000001	      0.00000000	      0.00000000
      4.63000000	      2.57704226	    -10.30297543	    -10.75026929	     -0.76523235	      0.82915065	      0.30284066	     -1.61376131	      8.58608370	    -21.94047417	     21.53090648	     -4.37460126	      0.37578521	     22.50744235	     31.36423508	     -7.50091133	     22.46330797	    -19.11738901	    -24.73784960	     39.49302450	     -7.72578746	      0.68928331	     14.33209594	     21.32428865	     -7.50091133	    -27.59449038	      7.33918198	      2.40414587	     -8.89194634	     -1.89308513	    -12.44504341	    104.77390545	     90.00000001	      0.00000000	      0.00000000	      3.11499786	     -9.68656569	    -18.26798643	     45.67235202	     90.00000001	      0.00000000	      0.00000000
      4.64000000	      2.78716838	    -10.25267156	    -10.96847939	     -0.76222626	      0.83072149	      0.30108249	     -2.16624247	      8.39479779	    -21.01140733	     21.38072184	     -4.04921209	      0.37316399	     21.81078371	     29.43589788	     -7.50085815	     21.65425461	    -18.74502547	    -24.27953431	     39.13706422	     -7.30755724	      0.68307063	     13.97059399	     19.19665131	     -7.50085815	    -27.72844983	      7.16940763	      2.42825903	     -8.88050153	     -1.81893164	    -12.33690491	    104.72752389	     90.00000001	      0.00000000	      0.00000000	      3.16662580	     -9.73280458	    -18.30457375	     45.63859884	     90.00000001	      0.00000000	      0.00000000
      4.65000000	      2.70174166	    -10.26667999	    -11.18444984	     -0.75921730	      0.83176105	      0.29938250	     -2.19840910	      8.34148121	    -21.00737329	     21.51298699	     -4.23616940	      0.37547245	     21.50324972	     29.21992245	     -7.50085241	     21.24882818	    -18.63002010	    -24.24767322	     38.87196287	     -7.06143793	      0.67844374	     14.09689020	     19.12156644	     -7.50085241	    -27.51546353	      7.16474021	      2.41176733	     -8.92636987	     -1.77633119	    -12.20070820	    104.78813478	     90.00000001	      0.00000000	      0.00000000	      3.11627293	     -9.77148929	    -18.31120495	     45.61143005	     90.00000001	      0.00000000	      0.00000000
